<?xml version="1.0"?>
<svg width="2.5em" xmlns="http://www.w3.org/2000/svg" viewBox="0 0 16 16">
    <path d="M 2.5 2 C 1.673 2 1 2.673 1 3.5 L 1 12.5 C 1 13.327 1.673 14 2.5 14 L 6.6054688 14 C 6.4434687 13.683 6.3118906 13.349 6.2128906 13 L 2.5 13 C 2.224 13 2 12.776 2 12.5 L 2 11.572266 L 5.5566406 7.5664062 L 6.7167969 8.7890625 C 6.8857969 8.4920625 7.0817813 8.212125 7.3007812 7.953125 L 5.5332031 6.0898438 L 2 10.066406 L 2 3.5 C 2 3.224 2.224 3 2.5 3 L 13.5 3 C 13.776 3 14 3.224 14 3.5 L 14 6.6054688 C 14.357 6.7884687 14.694 7.0048125 15 7.2578125 L 15 3.5 C 15 2.673 14.327 2 13.5 2 L 2.5 2 z M 11 4 A 1 1 0 0 0 10 5 A 1 1 0 0 0 11 6 A 1 1 0 0 0 12 5 A 1 1 0 0 0 11 4 z M 11.5 7 C 9.0206409 7 7 9.0206409 7 11.5 C 7 13.979359 9.0206409 16 11.5 16 C 13.979359 16 16 13.979359 16 11.5 C 16 9.0206409 13.979359 7 11.5 7 z M 11.5 8 C 13.438919 8 15 9.5610811 15 11.5 C 15 13.438919 13.438919 15 11.5 15 C 9.5610811 15 8 13.438919 8 11.5 C 8 9.5610811 9.5610811 8 11.5 8 z M 11 9 L 11 11 L 9 11 L 9 12 L 11 12 L 11 14 L 12 14 L 12 12 L 14 12 L 14 11 L 12 11 L 12 9 L 11 9 z"/>
</svg>
