<?xml version="1.0" encoding="UTF-8"?>
<svg xmlns="http://www.w3.org/2000/svg" xmlns:xlink="http://www.w3.org/1999/xlink" width="128px" height="128px" viewBox="0 0 128 128" version="1.1">
<defs>
<linearGradient id="linear0" gradientUnits="userSpaceOnUse" x1="0" y1="0" x2="1" y2="0" gradientTransform="matrix(104,0,0,112,12,8)">
<stop offset="0.05" style="stop-color:rgb(96.470588%,82.352941%,25.882353%);stop-opacity:1;"/>
<stop offset="0.95" style="stop-color:rgb(100%,32.156863%,89.803922%);stop-opacity:1;"/>
</linearGradient>
</defs>
<g id="surface1">
<path style=" stroke:none;fill-rule:nonzero;fill:url(#linear0);" d="M 68.050781 87.648438 C 67.851562 85.601562 66 84 63.726562 84 C 61.648438 84 59.925781 85.351562 59.5 87.125 L 55.273438 110.25 C 55.148438 110.824219 55.074219 111.398438 55.074219 112 C 55.074219 116.425781 58.949219 120 63.75 120 C 68.550781 120 72.425781 116.425781 72.425781 112 C 72.425781 111.273438 72.324219 110.574219 72.125 109.898438 Z M 77.523438 88.75 Z M 101.074219 97.574219 C 100.601562 97.226562 100.175781 96.851562 99.675781 96.601562 L 82.449219 84.726562 C 80.875 83.773438 79.199219 83.800781 77.976562 84.949219 C 76.851562 85.976562 76.699219 87.550781 77.523438 88.800781 L 90.773438 105.25 C 91.023438 105.625 91.351562 105.949219 91.675781 106.300781 C 93.800781 108.574219 98.476562 108.699219 101.050781 106.300781 C 103.648438 103.851562 103.625 99.5 101.074219 97.574219 Z M 95.550781 83.75 Z M 112.601562 80.625 L 96.476562 80.050781 C 95.425781 79.898438 94.476562 80.574219 94.300781 81.550781 C 94.125 82.449219 94.675781 83.324219 95.574219 83.75 L 95.601562 83.75 L 111.226562 88.199219 C 113.476562 88.675781 116 87.625 116 85.300781 C 116 82.324219 115.175781 80.925781 112.601562 80.625 Z M 32.375 83.75 Z M 32.375 83.75 C 33.273438 83.351562 33.800781 82.449219 33.648438 81.550781 C 33.476562 80.550781 32.523438 79.898438 31.476562 80.050781 L 15.351562 80.625 C 12.75 80.925781 12 82.324219 12 85.273438 C 12 87.601562 14.476562 88.675781 16.699219 88.175781 L 32.324219 83.726562 C 32.351562 83.75 32.351562 83.75 32.375 83.75 Z M 45.550781 84.699219 L 28.324219 96.550781 C 27.824219 96.824219 27.351562 97.148438 26.925781 97.523438 C 24.324219 99.925781 24.324219 103.800781 26.925781 106.175781 C 29.523438 108.574219 33.699219 108.574219 36.300781 106.175781 C 36.648438 105.851562 36.949219 105.5 37.199219 105.125 L 50.449219 88.726562 C 51.273438 87.476562 51.125 85.925781 50 84.898438 C 48.800781 83.773438 46.851562 83.699219 45.550781 84.699219 Z M 64 8 C 64 8 71.550781 16.851562 71.550781 24.101562 C 71.550781 31.050781 67 36.675781 60.074219 36.675781 C 53.101562 36.675781 47.851562 31.050781 47.851562 24.101562 L 47.949219 22.375 C 41.148438 30.449219 37.074219 41.425781 37.074219 52.824219 C 37.074219 67.726562 49.125 79.773438 64.023438 79.773438 C 78.925781 79.773438 90.976562 67.726562 90.976562 52.824219 C 90.949219 34.675781 82 13.425781 64 8 Z M 63.023438 69.675781 C 57.023438 69.675781 52.175781 64.949219 52.175781 59.101562 C 52.175781 53.648438 55.699219 49.800781 61.648438 48.601562 C 67.601562 47.375 73.773438 44.523438 77.226562 39.898438 C 78.550781 44.25 79.199219 48.824219 79.199219 53.5 C 79.199219 62.425781 71.949219 69.675781 63.023438 69.675781 Z M 63.023438 69.675781 "/>
</g>
</svg>
