<?xml version="1.0" encoding="UTF-8"?>
<svg xmlns="http://www.w3.org/2000/svg" xmlns:xlink="http://www.w3.org/1999/xlink" width="256px" height="256px" viewBox="0 0 256 256" version="1.1">
<defs>
<linearGradient id="linear0" gradientUnits="userSpaceOnUse" x1="0" y1="0" x2="1" y2="0" gradientTransform="matrix(208,0,0,224,24,16)">
<stop offset="0.05" style="stop-color:rgb(96.470588%,82.352941%,25.882353%);stop-opacity:1;"/>
<stop offset="0.95" style="stop-color:rgb(100%,32.156863%,89.803922%);stop-opacity:1;"/>
</linearGradient>
</defs>
<g id="surface1">
<path style=" stroke:none;fill-rule:nonzero;fill:url(#linear0);" d="M 136.101562 175.300781 C 135.699219 171.199219 132 168 127.449219 168 C 123.300781 168 119.851562 170.699219 119 174.25 L 110.550781 220.5 C 110.300781 221.648438 110.148438 222.800781 110.148438 224 C 110.148438 232.851562 117.898438 240 127.5 240 C 137.101562 240 144.851562 232.851562 144.851562 224 C 144.851562 222.550781 144.648438 221.148438 144.25 219.800781 Z M 155.050781 177.5 Z M 202.148438 195.148438 C 201.199219 194.449219 200.351562 193.699219 199.351562 193.199219 L 164.898438 169.449219 C 161.75 167.550781 158.398438 167.601562 155.949219 169.898438 C 153.699219 171.949219 153.398438 175.101562 155.050781 177.601562 L 181.550781 210.5 C 182.050781 211.25 182.699219 211.898438 183.351562 212.601562 C 187.601562 217.148438 196.949219 217.398438 202.101562 212.601562 C 207.300781 207.699219 207.25 199 202.148438 195.148438 Z M 191.101562 167.5 Z M 225.199219 161.25 L 192.949219 160.101562 C 190.851562 159.800781 188.949219 161.148438 188.601562 163.101562 C 188.25 164.898438 189.351562 166.648438 191.148438 167.5 L 191.199219 167.5 L 222.449219 176.398438 C 226.949219 177.351562 232 175.25 232 170.601562 C 232 164.648438 230.351562 161.851562 225.199219 161.25 Z M 64.75 167.5 Z M 64.75 167.5 C 66.550781 166.699219 67.601562 164.898438 67.300781 163.101562 C 66.949219 161.101562 65.050781 159.800781 62.949219 160.101562 L 30.699219 161.25 C 25.5 161.851562 24 164.648438 24 170.550781 C 24 175.199219 28.949219 177.351562 33.398438 176.351562 L 64.648438 167.449219 C 64.699219 167.5 64.699219 167.5 64.75 167.5 Z M 91.101562 169.398438 L 56.648438 193.101562 C 55.648438 193.648438 54.699219 194.300781 53.851562 195.050781 C 48.648438 199.851562 48.648438 207.601562 53.851562 212.351562 C 59.050781 217.148438 67.398438 217.148438 72.601562 212.351562 C 73.300781 211.699219 73.898438 211 74.398438 210.25 L 100.898438 177.449219 C 102.550781 174.949219 102.25 171.851562 100 169.800781 C 97.601562 167.550781 93.699219 167.398438 91.101562 169.398438 Z M 128 16 C 128 16 143.101562 33.699219 143.101562 48.199219 C 143.101562 62.101562 134 73.351562 120.148438 73.351562 C 106.199219 73.351562 95.699219 62.101562 95.699219 48.199219 L 95.898438 44.75 C 82.300781 60.898438 74.148438 82.851562 74.148438 105.648438 C 74.148438 135.449219 98.25 159.550781 128.050781 159.550781 C 157.851562 159.550781 181.949219 135.449219 181.949219 105.648438 C 181.898438 69.351562 164 26.851562 128 16 Z M 126.050781 139.351562 C 114.050781 139.351562 104.351562 129.898438 104.351562 118.199219 C 104.351562 107.300781 111.398438 99.601562 123.300781 97.199219 C 135.199219 94.75 147.550781 89.050781 154.449219 79.800781 C 157.101562 88.5 158.398438 97.648438 158.398438 107 C 158.398438 124.851562 143.898438 139.351562 126.050781 139.351562 Z M 126.050781 139.351562 "/>
</g>
</svg>
