<?xml version="1.0" encoding="UTF-8"?>
<svg xmlns="http://www.w3.org/2000/svg" xmlns:xlink="http://www.w3.org/1999/xlink" width="80px" height="80px" viewBox="0 0 80 80" version="1.1">
<defs>
<linearGradient id="linear0" gradientUnits="userSpaceOnUse" x1="0" y1="0" x2="1" y2="0" gradientTransform="matrix(65,0,0,70,7.5,5)">
<stop offset="0.05" style="stop-color:rgb(96.470588%,82.352941%,25.882353%);stop-opacity:1;"/>
<stop offset="0.95" style="stop-color:rgb(100%,32.156863%,89.803922%);stop-opacity:1;"/>
</linearGradient>
</defs>
<g id="surface1">
<path style=" stroke:none;fill-rule:nonzero;fill:url(#linear0);" d="M 42.53125 54.78125 C 42.40625 53.5 41.25 52.5 39.828125 52.5 C 38.53125 52.5 37.453125 53.34375 37.1875 54.453125 L 34.546875 68.90625 C 34.46875 69.265625 34.421875 69.625 34.421875 70 C 34.421875 72.765625 36.84375 75 39.84375 75 C 42.84375 75 45.265625 72.765625 45.265625 70 C 45.265625 69.546875 45.203125 69.109375 45.078125 68.6875 Z M 48.453125 55.46875 Z M 63.171875 60.984375 C 62.875 60.765625 62.609375 60.53125 62.296875 60.375 L 51.53125 52.953125 C 50.546875 52.359375 49.5 52.375 48.734375 53.09375 C 48.03125 53.734375 47.9375 54.71875 48.453125 55.5 L 56.734375 65.78125 C 56.890625 66.015625 57.09375 66.21875 57.296875 66.4375 C 58.625 67.859375 61.546875 67.9375 63.15625 66.4375 C 64.78125 64.90625 64.765625 62.1875 63.171875 60.984375 Z M 59.71875 52.34375 Z M 70.375 50.390625 L 60.296875 50.03125 C 59.640625 49.9375 59.046875 50.359375 58.9375 50.96875 C 58.828125 51.53125 59.171875 52.078125 59.734375 52.34375 L 59.75 52.34375 L 69.515625 55.125 C 70.921875 55.421875 72.5 54.765625 72.5 53.3125 C 72.5 51.453125 71.984375 50.578125 70.375 50.390625 Z M 20.234375 52.34375 Z M 20.234375 52.34375 C 20.796875 52.09375 21.125 51.53125 21.03125 50.96875 C 20.921875 50.34375 20.328125 49.9375 19.671875 50.03125 L 9.59375 50.390625 C 7.96875 50.578125 7.5 51.453125 7.5 53.296875 C 7.5 54.75 9.046875 55.421875 10.4375 55.109375 L 20.203125 52.328125 C 20.21875 52.34375 20.21875 52.34375 20.234375 52.34375 Z M 28.46875 52.9375 L 17.703125 60.34375 C 17.390625 60.515625 17.09375 60.71875 16.828125 60.953125 C 15.203125 62.453125 15.203125 64.875 16.828125 66.359375 C 18.453125 67.859375 21.0625 67.859375 22.6875 66.359375 C 22.90625 66.15625 23.09375 65.9375 23.25 65.703125 L 31.53125 55.453125 C 32.046875 54.671875 31.953125 53.703125 31.25 53.0625 C 30.5 52.359375 29.28125 52.3125 28.46875 52.9375 Z M 40 5 C 40 5 44.71875 10.53125 44.71875 15.0625 C 44.71875 19.40625 41.875 22.921875 37.546875 22.921875 C 33.1875 22.921875 29.90625 19.40625 29.90625 15.0625 L 29.96875 13.984375 C 25.71875 19.03125 23.171875 25.890625 23.171875 33.015625 C 23.171875 42.328125 30.703125 49.859375 40.015625 49.859375 C 49.328125 49.859375 56.859375 42.328125 56.859375 33.015625 C 56.84375 21.671875 51.25 8.390625 40 5 Z M 39.390625 43.546875 C 35.640625 43.546875 32.609375 40.59375 32.609375 36.9375 C 32.609375 33.53125 34.8125 31.125 38.53125 30.375 C 42.25 29.609375 46.109375 27.828125 48.265625 24.9375 C 49.09375 27.65625 49.5 30.515625 49.5 33.4375 C 49.5 39.015625 44.96875 43.546875 39.390625 43.546875 Z M 39.390625 43.546875 "/>
</g>
</svg>
