<?xml version="1.0" encoding="UTF-8"?>
<svg xmlns="http://www.w3.org/2000/svg" xmlns:xlink="http://www.w3.org/1999/xlink" width="60px" height="60px" viewBox="0 0 60 60" version="1.1">
<defs>
<linearGradient id="linear0" gradientUnits="userSpaceOnUse" x1="0" y1="0" x2="1" y2="0" gradientTransform="matrix(48.75,0,0,52.5,5.625,3.75)">
<stop offset="0.05" style="stop-color:rgb(96.470588%,82.352941%,25.882353%);stop-opacity:1;"/>
<stop offset="0.95" style="stop-color:rgb(100%,32.156863%,89.803922%);stop-opacity:1;"/>
</linearGradient>
</defs>
<g id="surface1">
<path style=" stroke:none;fill-rule:nonzero;fill:url(#linear0);" d="M 31.898438 41.085938 C 31.804688 40.125 30.9375 39.375 29.871094 39.375 C 28.898438 39.375 28.089844 40.007812 27.890625 40.839844 L 25.910156 51.679688 C 25.851562 51.949219 25.816406 52.21875 25.816406 52.5 C 25.816406 54.574219 27.632812 56.25 29.882812 56.25 C 32.132812 56.25 33.949219 54.574219 33.949219 52.5 C 33.949219 52.160156 33.902344 51.832031 33.808594 51.515625 Z M 36.339844 41.601562 Z M 47.378906 45.738281 C 47.15625 45.574219 46.957031 45.398438 46.722656 45.28125 L 38.648438 39.714844 C 37.910156 39.269531 37.125 39.28125 36.550781 39.820312 C 36.023438 40.300781 35.953125 41.039062 36.339844 41.625 L 42.550781 49.335938 C 42.667969 49.511719 42.820312 49.664062 42.972656 49.828125 C 43.96875 50.894531 46.160156 50.953125 47.367188 49.828125 C 48.585938 48.679688 48.574219 46.640625 47.378906 45.738281 Z M 44.789062 39.257812 Z M 52.78125 37.792969 L 45.222656 37.523438 C 44.730469 37.453125 44.285156 37.769531 44.203125 38.226562 C 44.121094 38.648438 44.378906 39.058594 44.800781 39.257812 L 44.8125 39.257812 L 52.136719 41.34375 C 53.191406 41.566406 54.375 41.074219 54.375 39.984375 C 54.375 38.589844 53.988281 37.933594 52.78125 37.792969 Z M 15.175781 39.257812 Z M 15.175781 39.257812 C 15.597656 39.070312 15.84375 38.648438 15.773438 38.226562 C 15.691406 37.757812 15.246094 37.453125 14.753906 37.523438 L 7.195312 37.792969 C 5.976562 37.933594 5.625 38.589844 5.625 39.972656 C 5.625 41.0625 6.785156 41.566406 7.828125 41.332031 L 15.152344 39.246094 C 15.164062 39.257812 15.164062 39.257812 15.175781 39.257812 Z M 21.351562 39.703125 L 13.277344 45.257812 C 13.042969 45.386719 12.820312 45.539062 12.621094 45.714844 C 11.402344 46.839844 11.402344 48.65625 12.621094 49.769531 C 13.839844 50.894531 15.796875 50.894531 17.015625 49.769531 C 17.179688 49.617188 17.320312 49.453125 17.4375 49.277344 L 23.648438 41.589844 C 24.035156 41.003906 23.964844 40.277344 23.4375 39.796875 C 22.875 39.269531 21.960938 39.234375 21.351562 39.703125 Z M 30 3.75 C 30 3.75 33.539062 7.898438 33.539062 11.296875 C 33.539062 14.554688 31.40625 17.191406 28.160156 17.191406 C 24.890625 17.191406 22.429688 14.554688 22.429688 11.296875 L 22.476562 10.488281 C 19.289062 14.273438 17.378906 19.417969 17.378906 24.761719 C 17.378906 31.746094 23.027344 37.394531 30.011719 37.394531 C 36.996094 37.394531 42.644531 31.746094 42.644531 24.761719 C 42.632812 16.253906 38.4375 6.292969 30 3.75 Z M 29.542969 32.660156 C 26.730469 32.660156 24.457031 30.445312 24.457031 27.703125 C 24.457031 25.148438 26.109375 23.34375 28.898438 22.78125 C 31.6875 22.207031 34.582031 20.871094 36.199219 18.703125 C 36.820312 20.742188 37.125 22.886719 37.125 25.078125 C 37.125 29.261719 33.726562 32.660156 29.542969 32.660156 Z M 29.542969 32.660156 "/>
</g>
</svg>
